<svg xmlns="http://www.w3.org/2000/svg" viewBox="0 0 1366 599" preserveAspectRatio="xMidYMid" width="1366" height="599" xmlns:xlink="http://www.w3.org/1999/xlink" style="shape-rendering:auto;display:block;background-position-x:0%;background-position-y:0%;background-size:auto;background-origin:padding-box;background-clip:border-box;background:scroll rgb(255, 255, 255) none  repeat;width:1366px;height:599px;;animation:none"><g><defs><linearGradient gradientUnits="userSpaceOnUse" y2="0" y1="0" x2="1366" x1="658" id="ldbk-photon-4manjdbdoww-lg"><stop offset="0" stop-color="#1d3f72"></stop>

    
<stop offset="1" stop-color="#34ffef"></stop></linearGradient>

  
<mask id="ldbk-photon-4manjdbdoww-mask"><g><path fill="#fff" d="M1666 -0.5 L659.2073496334134 -0.5 A15 15 0 0 1 659.2073496334134 30.5 L1666 30.5" transform="matrix(1,0,0,1,37.57982635498047,0)" style="fill:rgb(255, 255, 255);transform:matrix(1, 0, 0, 1, 37.5798, 0);;animation:none"></path>
<path fill="#000" d="M1413.0446330003974 -0.5 L1430.0892660007949 -0.5 A15 15 0 0 1 1430.0892660007949 30.5 L1413.0446330003974 30.5 A15 15 0 0 1 1413.0446330003974 -0.5" transform="matrix(1,0,0,1,0,0)" opacity="1" style="fill:rgb(0, 0, 0);transform:matrix(1, 0, 0, 1, 0, 0);;animation:none"></path>
<path fill="#fff" d="M1666 29.5 L638.5165525615703 29.5 A15 15 0 0 0 638.5165525615703 60.5 L1666 60.5" transform="matrix(1,0,0,1,-0.6000709533691406,0)" style="fill:rgb(255, 255, 255);transform:matrix(1, 0, 0, 1, -0.600071, 0);;animation:none"></path>
<path fill="#fff" d="M735.2139369305262 29.5 L747.1332807659385 29.5 A15 15 0 0 1 747.1332807659385 60.5 L735.2139369305262 60.5 A15 15 0 0 1 735.2139369305262 29.5" transform="matrix(1,0,0,1,0,0)" opacity="0.785714" style="fill:rgb(255, 255, 255);transform:matrix(1, 0, 0, 1, 0, 0);opacity:0.785714;;animation:none"></path>
<path fill="#fff" d="M1666 59.5 L654.3834915787359 59.5 A15 15 0 0 1 654.3834915787359 90.5 L1666 90.5" transform="matrix(1,0,0,1,34.477725982666016,0)" style="fill:rgb(255, 255, 255);transform:matrix(1, 0, 0, 1, 34.4777, 0);;animation:none"></path>
<path fill="#000" d="M1430.135879176083 59.5 L1464.2717583521662 59.5 A15 15 0 0 1 1464.2717583521662 90.5 L1430.135879176083 90.5 A15 15 0 0 1 1430.135879176083 59.5" transform="matrix(1,0,0,1,-995.03125,0)" opacity="0.571429" style="fill:rgb(0, 0, 0);transform:matrix(1, 0, 0, 1, -995.031, 0);opacity:0.571429;;animation:none"></path>
<path fill="#fff" d="M1666 89.5 L623.0616299874303 89.5 A15 15 0 0 0 623.0616299874303 120.5 L1666 120.5" transform="matrix(1,0,0,1,-0.6929397583007812,0)" style="fill:rgb(255, 255, 255);transform:matrix(1, 0, 0, 1, -0.69294, 0);;animation:none"></path>
<path fill="#fff" d="M709.4143320648859 89.5 L719.7779850349584 89.5 A15 15 0 0 1 719.7779850349584 120.5 L709.4143320648859 120.5 A15 15 0 0 1 709.4143320648859 89.5" transform="matrix(1,0,0,1,0,0)" opacity="0.142857" style="fill:rgb(255, 255, 255);transform:matrix(1, 0, 0, 1, 0, 0);opacity:0.142857;;animation:none"></path>
<path fill="#fff" d="M1666 119.5 L653.2845793778289 119.5 A15 15 0 0 1 653.2845793778289 150.5 L1666 150.5" transform="matrix(1,0,0,1,24.654008865356445,0)" style="fill:rgb(255, 255, 255);transform:matrix(1, 0, 0, 1, 24.654, 0);;animation:none"></path>
<path fill="#000" d="M1417.4347639074488 119.5 L1438.8695278148975 119.5 A15 15 0 0 1 1438.8695278148975 150.5 L1417.4347639074488 150.5 A15 15 0 0 1 1417.4347639074488 119.5" transform="matrix(1,0,0,1,-317.71502685546875,0)" opacity="1" style="fill:rgb(0, 0, 0);transform:matrix(1, 0, 0, 1, -317.715, 0);;animation:none"></path>
<path fill="#fff" d="M1666 149.5 L598.5069889805915 149.5 A15 15 0 0 0 598.5069889805915 180.5 L1666 180.5" transform="matrix(1,0,0,1,-13.63687801361084,0)" style="fill:rgb(255, 255, 255);transform:matrix(1, 0, 0, 1, -13.6369, 0);;animation:none"></path>
<path fill="#fff" d="M702.2785074567299 149.5 L740.3263337311867 149.5 A15 15 0 0 1 740.3263337311867 180.5 L702.2785074567299 180.5 A15 15 0 0 1 702.2785074567299 149.5" transform="matrix(1,0,0,1,0,0)" opacity="1" style="fill:rgb(255, 255, 255);transform:matrix(1, 0, 0, 1, 0, 0);;animation:none"></path>
<path fill="#fff" d="M1666 179.5 L648.7706430838898 179.5 A15 15 0 0 1 648.7706430838898 210.5 L1666 210.5" transform="matrix(1,0,0,1,9.281736373901367,0)" style="fill:rgb(255, 255, 255);transform:matrix(1, 0, 0, 1, 9.28174, 0);;animation:none"></path>
<path fill="#000" d="M1408.681432614342 179.5 L1421.3628652286839 179.5 A15 15 0 0 1 1421.3628652286839 210.5 L1408.681432614342 210.5 A15 15 0 0 1 1408.681432614342 179.5" transform="matrix(1,0,0,1,-1008.9854125976562,0)" opacity="0.428571" style="fill:rgb(0, 0, 0);transform:matrix(1, 0, 0, 1, -1008.99, 0);opacity:0.428571;;animation:none"></path>
<path fill="#fff" d="M1666 209.5 L593.7373859239883 209.5 A15 15 0 0 0 593.7373859239883 240.5 L1666 240.5" transform="matrix(1,0,0,1,-42.895172119140625,0)" style="fill:rgb(255, 255, 255);transform:matrix(1, 0, 0, 1, -42.8952, 0);;animation:none"></path>
<path fill="#fff" d="M716.8799029401866 209.5 L742.4981102671452 209.5 A15 15 0 0 1 742.4981102671452 240.5 L716.8799029401866 240.5 A15 15 0 0 1 716.8799029401866 209.5" transform="matrix(1,0,0,1,0,0)" opacity="1" style="fill:rgb(255, 255, 255);transform:matrix(1, 0, 0, 1, 0, 0);;animation:none"></path>
<path fill="#fff" d="M1666 239.5 L648.1907312010057 239.5 A15 15 0 0 1 648.1907312010057 270.5 L1666 270.5" transform="matrix(1,0,0,1,29.380447387695312,0)" style="fill:rgb(255, 255, 255);transform:matrix(1, 0, 0, 1, 29.3804, 0);;animation:none"></path>
<path fill="#000" d="M1416.2361258632177 239.5 L1436.4722517264354 239.5 A15 15 0 0 1 1436.4722517264354 270.5 L1416.2361258632177 270.5 A15 15 0 0 1 1416.2361258632177 239.5" transform="matrix(1,0,0,1,-796.1927490234375,0)" opacity="0.571428" style="fill:rgb(0, 0, 0);transform:matrix(1, 0, 0, 1, -796.193, 0);opacity:0.571428;;animation:none"></path>
<path fill="#fff" d="M1666 269.5 L617.5193532978692 269.5 A15 15 0 0 0 617.5193532978692 300.5 L1666 300.5" transform="matrix(1,0,0,1,-46.085121154785156,0)" style="fill:rgb(255, 255, 255);transform:matrix(1, 0, 0, 1, -46.0851, 0);;animation:none"></path>
<path fill="#fff" d="M744.1734269072542 269.5 L759.8665051223239 269.5 A15 15 0 0 1 759.8665051223239 300.5 L744.1734269072542 300.5 A15 15 0 0 1 744.1734269072542 269.5" transform="matrix(1,0,0,1,0,0)" opacity="0.928571" style="fill:rgb(255, 255, 255);transform:matrix(1, 0, 0, 1, 0, 0);opacity:0.928571;;animation:none"></path>
<path fill="#fff" d="M1666 299.5 L692.2526750432933 299.5 A15 15 0 0 1 692.2526750432933 330.5 L1666 330.5" transform="matrix(1,0,0,1,35.8739013671875,0)" style="fill:rgb(255, 255, 255);transform:matrix(1, 0, 0, 1, 35.8739, 0);;animation:none"></path>
<path fill="#000" d="M1412.7800613029997 299.5 L1429.5601226059994 299.5 A15 15 0 0 1 1429.5601226059994 330.5 L1412.7800613029997 330.5 A15 15 0 0 1 1412.7800613029997 299.5" transform="matrix(1,0,0,1,0,0)" opacity="1" style="fill:rgb(0, 0, 0);transform:matrix(1, 0, 0, 1, 0, 0);;animation:none"></path>
<path fill="#fff" d="M1666 329.5 L659.2215406324285 329.5 A15 15 0 0 0 659.2215406324285 360.5 L1666 360.5" transform="matrix(1,0,0,1,-32.240440368652344,0)" style="fill:rgb(255, 255, 255);transform:matrix(1, 0, 0, 1, -32.2404, 0);;animation:none"></path>
<path fill="#fff" d="M712.3899694312918 329.5 L727.0691827429489 329.5 A15 15 0 0 1 727.0691827429489 360.5 L712.3899694312918 360.5 A15 15 0 0 1 712.3899694312918 329.5" transform="matrix(1,0,0,1,0,0)" opacity="0.0714278" style="fill:rgb(255, 255, 255);transform:matrix(1, 0, 0, 1, 0, 0);opacity:0.0714278;;animation:none"></path>
<path fill="#fff" d="M1666 359.5 L693.4570243514285 359.5 A15 15 0 0 1 693.4570243514285 390.5 L1666 390.5" transform="matrix(1,0,0,1,2.816619873046875,0)" style="fill:rgb(255, 255, 255);transform:matrix(1, 0, 0, 1, 2.81662, 0);;animation:none"></path>
<path fill="#000" d="M1419.7682230260505 359.5 L1443.536446052101 359.5 A15 15 0 0 1 1443.536446052101 390.5 L1419.7682230260505 390.5 A15 15 0 0 1 1419.7682230260505 359.5" transform="matrix(1,0,0,1,-989.3050537109375,0)" opacity="0.571429" style="fill:rgb(0, 0, 0);transform:matrix(1, 0, 0, 1, -989.305, 0);opacity:0.571429;;animation:none"></path>
<path fill="#fff" d="M1666 389.5 L656.4871756946293 389.5 A15 15 0 0 0 656.4871756946293 420.5 L1666 420.5" transform="matrix(1,0,0,1,-44.483612060546875,0)" style="fill:rgb(255, 255, 255);transform:matrix(1, 0, 0, 1, -44.4836, 0);;animation:none"></path>
<path fill="#fff" d="M762.5888583807455 389.5 L786.6823194542568 389.5 A15 15 0 0 1 786.6823194542568 420.5 L762.5888583807455 420.5 A15 15 0 0 1 762.5888583807455 389.5" transform="matrix(1,0,0,1,0,0)" opacity="0.142857" style="fill:rgb(255, 255, 255);transform:matrix(1, 0, 0, 1, 0, 0);opacity:0.142857;;animation:none"></path>
<path fill="#fff" d="M1666 419.5 L694.4312086737347 419.5 A15 15 0 0 1 694.4312086737347 450.5 L1666 450.5" transform="matrix(1,0,0,1,12.507942199707031,0)" style="fill:rgb(255, 255, 255);transform:matrix(1, 0, 0, 1, 12.5079, 0);;animation:none"></path>
<path fill="#000" d="M1410.4439949917564 419.5 L1424.8879899835129 419.5 A15 15 0 0 1 1424.8879899835129 450.5 L1410.4439949917564 450.5 A15 15 0 0 1 1410.4439949917564 419.5" transform="matrix(1,0,0,1,-274.0624084472656,0)" opacity="1" style="fill:rgb(0, 0, 0);transform:matrix(1, 0, 0, 1, -274.062, 0);;animation:none"></path>
<path fill="#fff" d="M1666 449.5 L647.2767208932307 449.5 A15 15 0 0 0 647.2767208932307 480.5 L1666 480.5" transform="matrix(1,0,0,1,-15.711763381958008,0)" style="fill:rgb(255, 255, 255);transform:matrix(1, 0, 0, 1, -15.7118, 0);;animation:none"></path>
<path fill="#fff" d="M786.7438717255693 449.5 L818.4815207372242 449.5 A15 15 0 0 1 818.4815207372242 480.5 L786.7438717255693 480.5 A15 15 0 0 1 786.7438717255693 449.5" transform="matrix(1,0,0,1,0,0)" opacity="1" style="fill:rgb(255, 255, 255);transform:matrix(1, 0, 0, 1, 0, 0);;animation:none"></path>
<path fill="#fff" d="M1666 479.5 L691.2885001007063 479.5 A15 15 0 0 1 691.2885001007063 510.5 L1666 510.5" transform="matrix(1,0,0,1,2.1025447845458984,0)" style="fill:rgb(255, 255, 255);transform:matrix(1, 0, 0, 1, 2.10254, 0);;animation:none"></path>
<path fill="#000" d="M1425.4098657392967 479.5 L1454.8197314785934 479.5 A15 15 0 0 1 1454.8197314785934 510.5 L1425.4098657392967 510.5 A15 15 0 0 1 1425.4098657392967 479.5" transform="matrix(1,0,0,1,-471.4100036621094,0)" opacity="0.857143" style="fill:rgb(0, 0, 0);transform:matrix(1, 0, 0, 1, -471.41, 0);opacity:0.857143;;animation:none"></path>
<path fill="#fff" d="M1666 509.5 L651.8982110801633 509.5 A15 15 0 0 0 651.8982110801633 540.5 L1666 540.5" transform="matrix(1,0,0,1,-28.30294418334961,0)" style="fill:rgb(255, 255, 255);transform:matrix(1, 0, 0, 1, -28.3029, 0);;animation:none"></path>
<path fill="#fff" d="M776.6524025226615 509.5 L809.9724326134298 509.5 A15 15 0 0 1 809.9724326134298 540.5 L776.6524025226615 540.5 A15 15 0 0 1 776.6524025226615 509.5" transform="matrix(1,0,0,1,0,0)" opacity="1" style="fill:rgb(255, 255, 255);transform:matrix(1, 0, 0, 1, 0, 0);;animation:none"></path>
<path fill="#fff" d="M1666 539.5 L670.345598085791 539.5 A15 15 0 0 1 670.345598085791 570.5 L1666 570.5" transform="matrix(1,0,0,1,13.46493911743164,0)" style="fill:rgb(255, 255, 255);transform:matrix(1, 0, 0, 1, 13.4649, 0);;animation:none"></path>
<path fill="#000" d="M1423.4046287524527 539.5 L1450.8092575049054 539.5 A15 15 0 0 1 1450.8092575049054 570.5 L1423.4046287524527 570.5 A15 15 0 0 1 1423.4046287524527 539.5" transform="matrix(1,0,0,1,-965.0716552734375,0)" opacity="0.428571" style="fill:rgb(0, 0, 0);transform:matrix(1, 0, 0, 1, -965.072, 0);opacity:0.428571;;animation:none"></path>
<path fill="#fff" d="M1666 569.5 L633.9686492341349 569.5 A15 15 0 0 0 633.9686492341349 600.5 L1666 600.5" transform="matrix(1,0,0,1,-26.448753356933594,0)" style="fill:rgb(255, 255, 255);transform:matrix(1, 0, 0, 1, -26.4488, 0);;animation:none"></path>
<path fill="#fff" d="M736.3674209520565 569.5 L768.0451929236573 569.5 A15 15 0 0 1 768.0451929236573 600.5 L736.3674209520565 600.5 A15 15 0 0 1 736.3674209520565 569.5" transform="matrix(1,0,0,1,0,0)" opacity="0.428572" style="fill:rgb(255, 255, 255);transform:matrix(1, 0, 0, 1, 0, 0);opacity:0.428572;;animation:none"></path></g></mask></defs>


<rect mask="url(#ldbk-photon-4manjdbdoww-mask)" fill="url(#ldbk-photon-4manjdbdoww-lg)" height="599" width="1366" y="0" x="0" style="fill:url('#ldbk-photon-4manjdbdoww-lg');;animation:none"></rect>
<g></g></g><!-- [ldio] generated by https://loading.io --></svg>